<svg preserveAspectRatio="xMidYMid meet" data-bbox="342.12 111.886 418.812 405.141" height="832" viewBox="342.12 111.886 418.812 405.141" width="1472" xmlns="http://www.w3.org/2000/svg" data-type="color" role="presentation" aria-hidden="true" aria-label="">
    <g>
        <defs>
            <clipPath id="ce269c33-8af0-4ad3-8881-3174fa37fb23_comp-k7d9rcy6">
                <path d="M64 233h142v254H64Zm0 0"></path>
            </clipPath>
            <clipPath id="aff82876-a5fb-4c4d-bbd6-b972dcd09588_comp-k7d9rcy6">
                <path d="m282.668 308.254-88.395 191.574L-.203 410.094 88.195 218.52Zm0 0"></path>
            </clipPath>
            <clipPath id="892a4568-0128-4ff9-975a-fda07aab3b68_comp-k7d9rcy6">
                <path d="M258.836 297.258 113.379 230.14c-13.164-6.075-28.762-.328-34.836 12.836l-66.305 143.7c-6.074 13.164-.328 28.762 12.836 34.836l145.457 67.113c13.164 6.074 28.758.328 34.832-12.836l66.309-143.7c6.074-13.163.324-28.76-12.836-34.831m0 0"></path>
            </clipPath>
            <clipPath id="4cfe70b3-a78a-4b3b-b4f4-8638aac7221c_comp-k7d9rcy6">
                <path d="m282.668 308.254-88.395 191.574L1.25 410.762l88.395-191.574Zm0 0"></path>
            </clipPath>
            <clipPath id="e0d67700-5e94-433d-8fee-8084fc388fcf_comp-k7d9rcy6">
                <path d="m282.668 308.254-88.395 191.574L1.25 410.762l88.395-191.574Zm0 0"></path>
            </clipPath>
            <clipPath id="23ba6388-5007-4fba-b215-7ace3ae80263_comp-k7d9rcy6">
                <path d="M276 231h259v257H276Zm0 0"></path>
            </clipPath>
            <clipPath id="41da2c1c-b5ee-4d68-b5c2-e950380b9a85_comp-k7d9rcy6">
                <path d="m456.719 218.68 90.12 190.77-193.655 91.484-90.122-190.77Zm0 0"></path>
            </clipPath>
            <clipPath id="1c23b18f-e2a7-439b-b730-937fb4359c27_comp-k7d9rcy6">
                <path d="m422.813 234.7-124.5 58.812a37.5 37.5 0 0 0-19.286 21.258 37.5 37.5 0 0 0 1.395 28.668l57.992 122.753a37.5 37.5 0 0 0 21.258 19.286 37.5 37.5 0 0 0 28.664-1.399l124.504-58.812a37.5 37.5 0 0 0 19.285-21.258 37.5 37.5 0 0 0-1.398-28.668l-57.989-122.754a37.5 37.5 0 0 0-49.925-17.887m0 0"></path>
            </clipPath>
            <clipPath id="e8bbf1c6-2892-4767-903d-8245b3340e57_comp-k7d9rcy6">
                <path d="m456.719 218.68 90.12 190.77-192.21 90.8-90.121-190.766Zm0 0"></path>
            </clipPath>
            <clipPath id="246f3921-e70d-4f37-b7f7-b8f958cf7f7f_comp-k7d9rcy6">
                <path d="M66 2h141v255H66Zm0 0"></path>
            </clipPath>
            <clipPath id="3e661b74-4233-480f-9c0f-41d6d972711c_comp-k7d9rcy6">
                <path d="m180.719-12.32 90.12 190.77-193.655 91.484-90.121-190.77Zm0 0"></path>
            </clipPath>
            <clipPath id="9dd980ae-610d-45c0-9bb9-38bc3881e964_comp-k7d9rcy6">
                <path d="m146.813 3.7-124.5 58.812A37.5 37.5 0 0 0 3.026 83.77a37.5 37.5 0 0 0 1.395 28.668L62.414 235.19a37.5 37.5 0 0 0 21.258 19.286 37.5 37.5 0 0 0 28.664-1.399l124.504-58.812a37.5 37.5 0 0 0 19.285-21.258 37.5 37.5 0 0 0-1.398-28.668L196.738 21.586a37.5 37.5 0 0 0-49.925-17.887m0 0"></path>
            </clipPath>
            <clipPath id="f179caca-c082-455f-b19c-5969dcaddbb0_comp-k7d9rcy6">
                <path d="m180.719-12.32 90.12 190.77-192.21 90.8-90.121-190.766Zm0 0"></path>
            </clipPath>
            <clipPath id="d8716a90-ed2b-4748-990a-76c5b4182dde_comp-k7d9rcy6">
                <path d="m-11.582 78.523 90.121 190.77 192.211-90.805-90.121-190.765Zm0 0"></path>
            </clipPath>
            <clipPath id="9b17036f-fcf7-438c-b405-44a23409c7e5_comp-k7d9rcy6">
                <path d="M259 0v257H0V0z"></path>
            </clipPath>
            <clipPath id="7e9bde38-6a20-4c6f-8f02-e39d09e052a8_comp-k7d9rcy6">
                <path d="M139 81h266v105H139Zm0 0"></path>
            </clipPath>
            <clipPath id="118d42f6-5b8d-4163-bb8b-3a1e5e375c14_comp-k7d9rcy6">
                <path d="M272.332 300.316 123.145 151.13 273.46.813 422.648 150Zm0 0"></path>
            </clipPath>
            <clipPath id="429bea4d-c5fe-4da9-88f5-76a78da72f31_comp-k7d9rcy6">
                <path d="M272.332 300.316 123.145 151.13 273.46.813 422.648 150Zm0 0"></path>
            </clipPath>
            <clipPath id="0dc35079-ba2f-4ace-90d1-8dd86d4099fe_comp-k7d9rcy6">
                <path d="M214 201h123v229.809H214Zm0 0"></path>
            </clipPath>
            <clipPath id="20585cef-43c2-4bbb-b69f-75a4d4de2997_comp-k7d9rcy6">
                <path d="M548 0v500H0V0z"></path>
            </clipPath>
        </defs>
        <g clip-path="url(#20585cef-43c2-4bbb-b69f-75a4d4de2997_comp-k7d9rcy6)" transform="translate(278 30)">
            <g clip-path="url(#ce269c33-8af0-4ad3-8881-3174fa37fb23_comp-k7d9rcy6)">
                <g clip-path="url(#aff82876-a5fb-4c4d-bbd6-b972dcd09588_comp-k7d9rcy6)">
                    <g clip-path="url(#892a4568-0128-4ff9-975a-fda07aab3b68_comp-k7d9rcy6)">
                        <g clip-path="url(#4cfe70b3-a78a-4b3b-b4f4-8638aac7221c_comp-k7d9rcy6)">
                            <g clip-path="url(#e0d67700-5e94-433d-8fee-8084fc388fcf_comp-k7d9rcy6)">
                                <path d="M186.844 485.371c13.539-4.062 22.344-17.867 17.992-31.695-1.957-6.031-5.734-11.469-8.984-16.797-3.793-6.234-7.665-12.434-11.485-18.664-7.262-11.88-14.59-23.75-21.144-36.078a301 301 0 0 0-4.797-8.676l-1.02-2.906c-3.773-11.145-7.386-22.133-9.058-33.852s-1.036-23.164-.364-34.887c1.336-23.52-1.351-49.886-23.52-63.382-19.632-11.942-40.484-.54-50.433 17.75-10.664 19.59-10.652 44.543-9.281 66.222a218 218 0 0 0 5.09 34.906q3.96 17.25 10.656 33.633a205 205 0 0 0 16.742 33.043 205.3 205.3 0 0 0 22.403 29.504 129.8 129.8 0 0 0 31.566 25.07c10.688 6.051 23.398 10.485 35.637 6.81m0 0" fill="#ddb892" data-color="1"></path>
                            </g>
                        </g>
                    </g>
                </g>
            </g>
            <g clip-path="url(#23ba6388-5007-4fba-b215-7ace3ae80263_comp-k7d9rcy6)">
                <g clip-path="url(#41da2c1c-b5ee-4d68-b5c2-e950380b9a85_comp-k7d9rcy6)">
                    <g clip-path="url(#1c23b18f-e2a7-439b-b730-937fb4359c27_comp-k7d9rcy6)">
                        <g clip-path="url(#e8bbf1c6-2892-4767-903d-8245b3340e57_comp-k7d9rcy6)">
                            <g clip-path="url(#9b17036f-fcf7-438c-b405-44a23409c7e5_comp-k7d9rcy6)" transform="translate(276 231)">
                                <g clip-path="url(#246f3921-e70d-4f37-b7f7-b8f958cf7f7f_comp-k7d9rcy6)">
                                    <g clip-path="url(#3e661b74-4233-480f-9c0f-41d6d972711c_comp-k7d9rcy6)">
                                        <g clip-path="url(#9dd980ae-610d-45c0-9bb9-38bc3881e964_comp-k7d9rcy6)">
                                            <g clip-path="url(#f179caca-c082-455f-b19c-5969dcaddbb0_comp-k7d9rcy6)">
                                                <g clip-path="url(#d8716a90-ed2b-4748-990a-76c5b4182dde_comp-k7d9rcy6)">
                                                    <path d="M85.836 254.773c-13.57-3.941-22.504-17.668-18.273-31.535 1.902-6.047 5.628-11.515 8.828-16.875 3.738-6.273 7.554-12.504 11.316-18.765 7.156-11.95 14.375-23.887 20.816-36.274a305 305 0 0 1 4.723-8.715l.992-2.918c3.672-11.175 7.188-22.195 8.754-33.93 1.567-11.734.824-23.171.047-34.886-1.547-23.512.902-49.898 22.945-63.594 19.528-12.12 40.48-.906 50.594 17.297 10.84 19.488 11.05 44.445 9.875 66.133a217 217 0 0 1-4.773 34.953 217.4 217.4 0 0 1-10.352 33.723 205 205 0 0 1-16.445 33.195 205 205 0 0 1-22.133 29.707 129.8 129.8 0 0 1-31.336 25.352c-10.637 6.148-23.305 10.695-35.578 7.132m0 0" fill="#e6ccb2" data-color="2"></path>
                                                </g>
                                            </g>
                                        </g>
                                    </g>
                                </g>
                            </g>
                        </g>
                    </g>
                </g>
            </g>
            <g clip-path="url(#7e9bde38-6a20-4c6f-8f02-e39d09e052a8_comp-k7d9rcy6)">
                <g clip-path="url(#118d42f6-5b8d-4163-bb8b-3a1e5e375c14_comp-k7d9rcy6)">
                    <g clip-path="url(#429bea4d-c5fe-4da9-88f5-76a78da72f31_comp-k7d9rcy6)">
                        <path d="M139.277 149.156c-.87 14.106 9.04 27.145 23.52 27.84 6.336.25 12.742-1.414 18.863-2.621 7.168-1.402 14.32-2.89 21.485-4.32 13.66-2.707 27.332-5.477 41.167-7.364 3.278-.449 6.508-.945 9.797-1.504l3.082.051c11.758.309 23.32.719 34.895 3.203 11.574 2.485 22.094 7.043 32.86 11.723 21.609 9.39 47.277 15.984 67.609-.148 17.992-14.293 14.504-37.801.78-53.461-14.69-16.778-38.112-25.395-58.925-31.606a217 217 0 0 0-34.515-7.297 217 217 0 0 0-35.239-1.632 205 205 0 0 0-36.797 4.285 205.4 205.4 0 0 0-35.43 10.816 129.7 129.7 0 0 0-34.437 20.95c-9.375 7.937-17.933 18.331-18.715 31.085m0 0" fill="#b08968" data-color="3"></path>
                    </g>
                </g>
            </g>
            <g clip-path="url(#0dc35079-ba2f-4ace-90d1-8dd86d4099fe_comp-k7d9rcy6)">
                <path d="M232.84 241.242c4.754-9.168 10.375-17.847 16.773-25.812 6.387-7.957 15.711-14.16 25.918-14.403 15.57-.363 32.86 13.133 42.375 24.602 10.504 12.656 16.207 28.926 18.14 45.113 2.61 21.824-.968 43.863-4.616 65.54-4.59 27.218-8.934 59.542-27.25 81.296-4.743 5.637-10.168 11.516-17.41 12.852-3.93.722-7.993 0-11.805-1.2-23.938-7.503-38.414-37.27-48.328-58.867-18.73-40.773-14.317-89.554 6.203-129.12m0 0" fill="#7f5539" data-color="4"></path>
            </g>
        </g>
    </g>
</svg>